<svg width="705" height="94" viewBox="0 0 705 94" fill="none" xmlns="http://www.w3.org/2000/svg">
<path d="M35.0424 61.5996C32.0519 61.5996 27.6943 60.0616 21.9696 56.9857C16.2449 53.9951 11.5882 52.4999 7.99963 52.4999C4.66734 52.4999 2.0186 52.8417 0.0534055 53.5252V48.7831C2.36037 48.0141 5.00912 47.6296 7.99963 47.6296C11.4174 47.6296 16.2022 49.1249 22.3541 52.1154C28.506 55.1913 32.6927 56.7293 34.9143 56.7293C37.6484 56.7293 40.5108 56.0458 43.5013 54.6787V59.9334C40.5108 61.0442 37.6912 61.5996 35.0424 61.5996ZM101.273 93V79.1582L193.039 1.87474L194.577 0.593093V14.3067L103.451 91.0775L101.273 93ZM105.502 42.6312C102.597 42.6312 99.9483 41.9476 97.5559 40.5805C95.2489 39.128 93.3691 37.2483 91.9166 34.9413C90.5495 32.5489 89.866 29.9429 89.866 27.1232V16.3574C89.866 13.4523 90.5495 10.8463 91.9166 8.53931C93.3691 6.1469 95.2489 4.26715 97.5559 2.90006C99.9483 1.44752 102.597 0.721256 105.502 0.721256H117.55C120.455 0.721256 123.061 1.44752 125.368 2.90006C127.76 4.26715 129.64 6.1469 131.007 8.53931C132.459 10.8463 133.186 13.4523 133.186 16.3574V27.1232C133.186 29.9429 132.459 32.5489 131.007 34.9413C129.64 37.2483 127.76 39.128 125.368 40.5805C123.061 41.9476 120.455 42.6312 117.55 42.6312H105.502ZM97.684 34.8131H125.368V8.66748H97.684V34.8131ZM175.48 93.1282C172.575 93.1282 169.926 92.4446 167.534 91.0775C165.227 89.625 163.39 87.7452 162.023 85.4383C160.656 83.0459 159.972 80.4398 159.972 77.6202V66.7262C159.972 63.9066 160.656 61.3433 162.023 59.0363C163.39 56.6439 165.227 54.7641 167.534 53.397C169.926 51.9445 172.575 51.2182 175.48 51.2182H187.656C190.475 51.2182 193.039 51.9445 195.346 53.397C197.738 54.7641 199.618 56.6439 200.985 59.0363C202.437 61.3433 203.164 63.9066 203.164 66.7262V77.6202C203.164 80.4398 202.437 83.0459 200.985 85.4383C199.618 87.7452 197.738 89.625 195.346 91.0775C193.039 92.4446 190.475 93.1282 187.656 93.1282H175.48ZM167.79 85.3101H195.346V59.0363H167.79V85.3101ZM249.724 93V0.593093H260.105V82.6186H342.002V93H249.724ZM349.602 93V58.3955C349.602 55.4904 350.286 52.8844 351.653 50.5774C353.02 48.185 354.857 46.3052 357.164 44.9382C359.556 43.5711 362.205 42.8875 365.11 42.8875H427.27C428.637 42.8875 429.791 42.4176 430.731 41.4777C431.756 40.4524 432.269 39.2562 432.269 37.8891V16.2292C432.269 14.8621 431.756 13.7086 430.731 12.7688C429.791 11.7434 428.637 11.2308 427.27 11.2308H365.11C363.743 11.2308 362.547 11.7434 361.522 12.7688C360.582 13.7086 360.112 14.8621 360.112 16.2292V19.8178H349.602V16.2292C349.602 13.3241 350.286 10.7181 351.653 8.41115C353.02 6.01874 354.857 4.13899 357.164 2.77189C359.556 1.31936 362.205 0.593093 365.11 0.593093H427.27C430.09 0.593093 432.653 1.31936 434.96 2.77189C437.352 4.13899 439.232 6.01874 440.599 8.41115C442.052 10.7181 442.778 13.3241 442.778 16.2292V37.8891C442.778 40.7087 442.052 43.3147 440.599 45.7071C439.232 48.0141 437.352 49.8939 434.96 51.3464C432.653 52.7135 430.09 53.397 427.27 53.397H365.11C363.743 53.397 362.547 53.9097 361.522 54.935C360.582 55.8749 360.112 57.0284 360.112 58.3955V77.492C360.112 78.8591 360.582 80.0553 361.522 81.0807C362.547 82.0205 363.743 82.4905 365.11 82.4905H442.778V93H349.602ZM476.752 93V12.5124L462.525 29.5584H448.812L473.035 0.721256H487.389V93H476.752ZM521.049 93C518.229 93 515.623 92.3165 513.231 90.9494C510.924 89.5823 509.087 87.7452 507.72 85.4383C506.353 83.0459 505.669 80.4398 505.669 77.6202V0.721256H516.05V77.6202C516.05 78.9873 516.52 80.1835 517.46 81.2088C518.486 82.1487 519.682 82.6186 521.049 82.6186H582.568C583.935 82.6186 585.089 82.1487 586.028 81.2088C587.054 80.1835 587.566 78.9873 587.566 77.6202V0.721256H597.948V77.6202C597.948 80.4398 597.264 83.0459 595.897 85.4383C594.53 87.7452 592.65 89.5823 590.258 90.9494C587.951 92.3165 585.388 93 582.568 93H521.049ZM612.318 93V16.101C612.318 13.2814 613.002 10.7181 614.369 8.41115C615.736 6.01874 617.573 4.13899 619.88 2.77189C622.272 1.4048 624.878 0.721256 627.698 0.721256H689.217C692.037 0.721256 694.6 1.4048 696.907 2.77189C699.299 4.13899 701.179 6.01874 702.546 8.41115C703.913 10.7181 704.597 13.2814 704.597 16.101V93H694.216V59.2926H622.7V93H612.318ZM622.7 48.9113H694.216V16.101C694.216 14.734 693.703 13.5805 692.678 12.6406C691.738 11.6153 690.584 11.1026 689.217 11.1026H627.698C626.331 11.1026 625.135 11.6153 624.109 12.6406C623.17 13.5805 622.7 14.734 622.7 16.101V48.9113Z" fill="#F4F5EE"/>
</svg>
