<svg width="122" height="109" viewBox="0 0 122 109" fill="none" xmlns="http://www.w3.org/2000/svg">
<g clip-path="url(#clip0_101_4)">
<path d="M115.875 32.125L120.25 27.75M120.25 27.75H117.333M120.25 27.75V30.6667M120.25 34.1667V37.0833C120.25 37.3928 120.127 37.6895 119.908 37.9083C119.689 38.1271 119.393 38.25 119.083 38.25H110.917C110.607 38.25 110.311 38.1271 110.092 37.9083C109.873 37.6895 109.75 37.3928 109.75 37.0833V28.9167C109.75 28.6072 109.873 28.3105 110.092 28.0917C110.311 27.8729 110.607 27.75 110.917 27.75H113.833" stroke="#F24E1E" stroke-width="1.7083" stroke-linecap="round" stroke-linejoin="round"/>
</g>
<path d="M0.723633 44.0514H4.93035V59.3625H12.7136V63.2456H0.723633V44.0514ZM14.57 50.2423H18.6064V63.2371H14.57V50.2423ZM16.5882 43.7789C17.0514 43.7789 17.5042 43.9163 17.8893 44.1736C18.2744 44.4309 18.5745 44.7967 18.7518 45.2246C18.929 45.6525 18.9754 46.1233 18.885 46.5776C18.7947 47.0319 18.5716 47.4491 18.2441 47.7766C17.9166 48.1041 17.4994 48.3272 17.0451 48.4175C16.5908 48.5079 16.12 48.4615 15.6921 48.2843C15.2642 48.107 14.8984 47.8069 14.6411 47.4218C14.3838 47.0367 14.2464 46.5839 14.2464 46.1207C14.2464 45.4996 14.4932 44.904 14.9323 44.4648C15.3715 44.0257 15.9672 43.7789 16.5882 43.7789ZM35.5014 44.0514H39.5378V55.522L44.1193 50.2253H49.0668L43.7701 56.2458L48.9561 63.2456H43.8808L39.5889 56.8164H39.5378V63.2456H35.5014V44.0514ZM20.8461 50.2423H24.6951V52.0221H24.7462C25.1345 51.3591 25.6949 50.8136 26.368 50.4433C27.0411 50.073 27.8019 49.8917 28.5697 49.9187C32.6657 49.9187 33.4151 52.6096 33.4151 56.1096V63.2456H29.4128V56.9185C29.4128 55.4113 29.4128 53.5123 27.3094 53.5123C25.2061 53.5123 24.8825 55.1558 24.8825 56.8504V63.2797H20.8461V50.2423Z" fill="#F24E1E"/>
<path d="M57.5742 55.2241C57.5823 54.8965 57.5238 54.5706 57.4022 54.2662C57.2806 53.9619 57.0983 53.6854 56.8666 53.4537C56.6348 53.2219 56.3584 53.0397 56.054 52.918C55.7497 52.7964 55.4238 52.7379 55.0961 52.7461C54.3904 52.7014 53.6955 52.9364 53.1616 53.4001C52.6278 53.8639 52.2979 54.5191 52.2434 55.2241H57.5742ZM60.9804 60.9892C60.3067 61.7965 59.4624 62.4444 58.5082 62.8862C57.554 63.3279 56.5137 63.5526 55.4623 63.5439C51.4259 63.5439 48.1899 60.8529 48.1899 56.6718C48.1899 52.4906 51.4259 49.8082 55.4623 49.8082C59.2347 49.8082 61.602 52.4991 61.602 56.6718V57.9406H52.2349C52.3461 58.6624 52.7157 59.3193 53.2748 59.7892C53.834 60.2591 54.5447 60.51 55.2749 60.4953C55.8501 60.4945 56.4157 60.348 56.919 60.0695C57.4223 59.7911 57.8469 59.3897 58.1532 58.9029L60.9804 60.9892ZM70.024 53.3762C69.3649 53.3559 68.7147 53.5327 68.1566 53.8841C67.5986 54.2355 67.1582 54.7455 66.8917 55.3487C66.6252 55.9519 66.5449 56.621 66.6609 57.2701C66.777 57.9193 67.0841 58.519 67.5431 58.9926C68.002 59.4661 68.5918 59.7919 69.2371 59.9283C69.8823 60.0646 70.5535 60.0052 71.1647 59.7578C71.776 59.5103 72.2995 59.0861 72.6682 58.5394C73.0369 57.9926 73.2341 57.3483 73.2344 56.6888C73.2705 56.2512 73.2122 55.811 73.0635 55.3978C72.9147 54.9847 72.6789 54.6084 72.3721 54.2943C72.0653 53.9802 71.6946 53.7357 71.2851 53.5773C70.8755 53.4189 70.4368 53.3503 69.9985 53.3762M76.9813 63.2373H73.2344V61.5342C72.7663 62.1585 72.1614 62.6673 71.4662 63.0216C70.7709 63.3759 70.0038 63.5662 69.2235 63.5779C65.3404 63.5779 62.7857 60.7763 62.7857 56.8165C62.7857 53.1804 65.0509 49.8422 68.7467 49.8422C69.5237 49.774 70.3058 49.893 71.0274 50.1893C71.749 50.4857 72.389 50.9507 72.8938 51.5454H72.9449V44.0516H76.9813V63.2373ZM106.105 40.0237H82.9081C82.6447 40.0203 82.3833 40.0694 82.139 40.1682C81.8948 40.2669 81.6726 40.4133 81.4856 40.5987C81.2985 40.7842 81.1502 41.0051 81.0494 41.2485C80.9486 41.4919 80.8973 41.7529 80.8985 42.0164V65.3066C80.9007 65.5679 80.9545 65.8262 81.0568 66.0666C81.1591 66.3071 81.3079 66.5249 81.4946 66.7077C81.6814 66.8905 81.9024 67.0346 82.1449 67.1317C82.3875 67.2288 82.6469 67.2771 82.9081 67.2737H106.105C106.369 67.2805 106.631 67.2348 106.877 67.1393C107.123 67.0438 107.348 66.9004 107.538 66.7174C107.728 66.5344 107.88 66.3155 107.985 66.0733C108.089 65.8311 108.145 65.5705 108.148 65.3066V42.0164C108.149 41.7503 108.095 41.487 107.992 41.2418C107.889 40.9967 107.737 40.7747 107.547 40.589C107.356 40.4033 107.131 40.2576 106.883 40.1605C106.635 40.0634 106.371 40.0169 106.105 40.0237ZM88.9713 63.2458H84.9349V50.2425H88.9713V63.2458ZM86.9531 48.4797C86.4899 48.4797 86.0371 48.3424 85.652 48.0851C85.2669 47.8278 84.9668 47.462 84.7895 47.0341C84.6123 46.6062 84.5659 46.1353 84.6563 45.6811C84.7466 45.2268 84.9697 44.8095 85.2972 44.482C85.6247 44.1545 86.0419 43.9315 86.4962 43.8411C86.9505 43.7508 87.4213 43.7972 87.8492 43.9744C88.2771 44.1517 88.6429 44.4518 88.9002 44.8369C89.1575 45.222 89.2949 45.6748 89.2949 46.1379C89.2949 46.759 89.0481 47.3547 88.609 47.7938C88.1698 48.233 87.5741 48.4797 86.9531 48.4797ZM104.095 63.2458H100.059V56.9272C100.059 55.42 100.059 53.521 97.9638 53.521C95.8689 53.521 95.5368 55.1645 95.5368 56.8591V63.2884H91.5004V50.2425H95.375V52.0308H95.4261C95.8155 51.3694 96.3763 50.8256 97.0494 50.4568C97.7225 50.0881 98.4827 49.9081 99.2496 49.9359C103.337 49.9359 104.095 52.6269 104.095 56.1268V63.2458Z" fill="#F24E1E"/>
<defs>
<clipPath id="clip0_101_4">
<rect width="14" height="14" fill="white" transform="translate(108 26)"/>
</clipPath>
</defs>
</svg>
